<svg xmlns="http://www.w3.org/2000/svg" xmlns:xlink="http://www.w3.org/1999/xlink" width="33" height="40" viewBox="0 0 33 40"><defs><path id="rdl1a" d="M126.929 69.902l.112-1.575a3.07 3.07 0 0 0-1.18-2.586l-3.373-2.698 8.995-7.421a4.303 4.303 0 0 0 1.461-3.205v-1.405a.12.12 0 0 0-.112-.112h-.056l-14.224 11.974c-.112.113-.112.225 0 .338l8.096 6.746a.171.171 0 0 0 .225 0s0-.056.056-.056z"/><path id="rdl1b" d="M106.072 69.902l-.113-1.575a3.07 3.07 0 0 1 1.18-2.586l3.374-2.698-8.995-7.421c-.956-.787-1.518-1.968-1.518-3.148v-1.406a.12.12 0 0 1 .112-.112h.057l14.223 11.918c.113.113.113.225 0 .338l-8.04 6.746a.171.171 0 0 1-.224 0c-.056.056-.056 0-.056-.056z"/><path id="rdl1c" d="M130.47 39.375c-3.653-1.518-7.757-1.462-11.355.056a12.03 12.03 0 0 1 7.14-5.229l1.068-.28c.056 0 .056-.057.056-.057v-.056l-.675-.787c-.674-.731-1.686-1.012-2.586-.619-2.53 1.012-4.779 2.699-6.409 4.891v-5.846c0-.338-.112-.619-.337-.9l-.338-.337a.713.713 0 0 0-1.012 0l-.45.337c-.224.225-.337.562-.337.9v5.79a14.21 14.21 0 0 0-6.296-4.778 2.454 2.454 0 0 0-2.642.618l-.675.787v.113h.056l1.068.28c2.924.788 5.51 2.643 7.14 5.229-3.654-1.518-7.702-1.574-11.356-.056-.9.393-1.462 1.293-1.406 2.249v1.011c0 .057.057.057.057.057h.056l.956-.562c3.485-1.912 7.645-2.08 11.243-.338-2.192.506-4.216 1.574-5.959 2.98a2.295 2.295 0 0 0-.73 2.586l.337 1.012c0 .056.056.056.112 0l.787-.787a12.012 12.012 0 0 1 7.252-3.654v12.93l-6.24-5.228a.272.272 0 0 0-.393 0c-.057.056-.057.112-.057.168v1.518c0 .9.394 1.743 1.069 2.305l6.69 5.678a.358.358 0 0 0 .337 0l6.69-5.565a2.995 2.995 0 0 0 1.068-2.305V51.91c0-.168-.112-.28-.28-.28-.057 0-.113 0-.17.056l-6.352 5.284v-12.93a12.006 12.006 0 0 1 7.308 3.654l.731.787c0 .056.056.056.112 0l.338-1.012a2.38 2.38 0 0 0-.675-2.642 15.667 15.667 0 0 0-5.96-2.98c3.599-1.743 7.76-1.63 11.245.338l.955.562h.113v-.057l.056-1.068c.113-.9-.45-1.855-1.35-2.248z"/></defs><g><g transform="translate(-100 -30)"><g><use fill="#d79a2b" xlink:href="#rdl1a"/></g><g><use fill="#d79a2b" xlink:href="#rdl1b"/></g><g><use fill="#006450" xlink:href="#rdl1c"/></g></g></g></svg>