<svg xmlns="http://www.w3.org/2000/svg" xmlns:xlink="http://www.w3.org/1999/xlink" width="99" height="68" viewBox="0 0 99 68"><defs><path id="bmqea" d="M160.61 5693.376l.12-1.672a3.26 3.26 0 0 0-1.255-2.746l-3.582-2.866 9.553-7.881a4.57 4.57 0 0 0 1.552-3.404v-1.492c0-.06-.06-.12-.12-.12h-.059l-15.105 12.718c-.12.119-.12.238 0 .358l8.597 7.164c.06.06.18.06.239 0 0 0 0-.06.06-.06z"/><path id="bmqeb" d="M138.46 5693.376l-.12-1.672a3.26 3.26 0 0 1 1.254-2.746l3.582-2.866-9.553-7.881a4.57 4.57 0 0 1-1.552-3.404v-1.492c0-.06.06-.12.12-.12h.059l15.105 12.658c.12.12.12.239 0 .358l-8.538 7.165c-.06.06-.179.06-.238 0-.12.12-.12.06-.12 0z"/><path id="bmqec" d="M164.371 5660.956c-3.88-1.612-8.24-1.612-12.06.06a12.777 12.777 0 0 1 7.582-5.553l1.135-.298c.06 0 .06-.06.06-.06v-.06l-.777-.776c-.716-.776-1.791-1.075-2.746-.657-2.747 1.015-5.075 2.806-6.807 5.135v-6.21c0-.358-.12-.716-.358-.955l-.358-.358a.757.757 0 0 0-1.075 0l-.418.358c-.239.239-.358.597-.358.955v6.15a15.092 15.092 0 0 0-6.687-5.075 2.606 2.606 0 0 0-2.806.657l-.717.836v.12h.06l1.135.298c3.104.836 5.85 2.806 7.582 5.552-3.88-1.612-8.18-1.671-12.06-.06-.956.419-1.553 1.374-1.493 2.389l.06 1.134c0 .06.06.06.06.06h.06l1.014-.597c3.702-2.03 8.12-2.21 11.941-.358-2.328.537-4.478 1.671-6.329 3.164a2.437 2.437 0 0 0-.776 2.746l.358 1.075c0 .06.06.06.12 0l.836-.836a12.756 12.756 0 0 1 7.702-3.88v13.732l-6.628-5.553a.289.289 0 0 0-.417 0c-.06.06-.06.12-.06.18v1.611c0 .955.418 1.851 1.134 2.448l7.105 5.91c.12.06.239.06.358 0l7.105-5.91a3.18 3.18 0 0 0 1.135-2.448v-1.612c0-.179-.12-.298-.299-.298-.06 0-.12 0-.179.06l-6.806 5.612v-13.733c2.985.359 5.731 1.732 7.761 3.881l.776.836c0 .06.06.06.12 0l.358-1.075c.358-.955.12-2.09-.716-2.806-1.851-1.492-4-2.567-6.33-3.164 3.822-1.85 8.24-1.732 11.942.358l1.015.597h.12v-.06l.059-1.134c.12-.955-.478-1.97-1.433-2.388z"/><path id="bmqed" d="M107.293 5702.033v-.836h.955v.836z"/><path id="bmqee" d="M102.099 5708.6c-.538.06-1.135-.119-1.493-.537a2.086 2.086 0 0 1-.478-1.313v-1.553h.956v1.314c0 .836.477 1.313 1.373 1.313h1.134v-7.105h.956v5.493s3.642.06 3.82 0c.359-.06.717-.12 1.075-.298l.12-.06-.478-1.075c-.12-.298-.358-.537-.597-.716a1.685 1.685 0 0 0-.895-.239c-.299 0-.657.06-.896.18l-.358-.777c.418-.239.955-.298 1.433-.358.477 0 .955.12 1.373.358.358.239.657.597.836 1.015l.477 1.194c.12.418.538.717.956.717l-.358.776a.963.963 0 0 1-.538-.18 2.144 2.144 0 0 1-.597-.417l-.06-.06-.06.06c-.358.179-.775.358-1.253.477-.418.12-.896.18-1.314.18h-2.746v1.552z"/><path id="bmqef" d="M116.726 5707.048c-.358 0-.776-.06-1.134-.12-.239-.059-.418-.238-.597-.417l-.06-.12-.12.06c-.477.358-1.014.597-1.611.597h-.955l-.299-.716h1.134a3.94 3.94 0 0 0 1.613-.359l.119-.06-1.134-2.925h1.015l1.074 2.687c.06.18.18.358.358.478.18.119.418.179.657.119h.717v-5.612h.955v6.328z"/><path id="bmqeg" d="M119.533 5707.048v-6.329h.955v6.33z"/><path id="bmqeh" d="M123.055 5708.242c.239-.06.478-.06.717-.179.238-.06.418-.239.537-.418.12-.239.18-.477.18-.716v-3.105h-.12c-.18-.06-.418-.06-.597-.06-.538 0-1.194.24-1.194 1.314 0 .298.119.657.298.896.239.238.537.358.896.358h.836l-.598.776h-.477c-.358 0-.717-.06-1.015-.239-.299-.179-.537-.418-.657-.716-.179-.299-.239-.717-.239-1.075s.12-.717.299-1.075c.179-.298.418-.537.776-.716.358-.18.776-.299 1.194-.239.537 0 1.075.06 1.612.18v3.76c0 .418-.06.836-.239 1.195-.179.298-.418.537-.716.656-.358.18-.657.24-1.075.299z"/><path id="bmqei" d="M130.638 5702.033v-.836h.955v.836z"/><path id="bmqej" d="M128.906 5702.033v-.836h.956v.836z"/><path id="bmqek" d="M130.22 5703.705c-.538 0-1.194.239-1.194 1.313 0 .299.12.657.298.896.24.239.538.358.896.358h.657v-2.448h-.12c-.179-.06-.358-.12-.537-.12zm-.239 3.343c-.358 0-.716-.06-1.015-.239a2.058 2.058 0 0 1-.716-.716c-.18-.299-.24-.717-.24-1.075s.12-.716.3-1.074c.178-.299.477-.598.775-.717.359-.179.777-.298 1.195-.239.537 0 1.074.06 1.612.18v3.94z"/><path id="bmqel" d="M134.698 5707.048c-.359 0-.776-.12-1.015-.418-.24-.298-.359-.716-.359-1.134v-4.836h.956v4.657c0 .239.06.537.179.716.179.18.358.239.597.239h5.254v-.12c.12-.298.18-.537.18-.835 0-.359-.12-.717-.419-.896-.298-.239-.657-.298-1.075-.298h-1.97l-.418-.896 2.329-2.567h1.074l-2.627 2.686h1.911c.597-.06 1.194.12 1.612.478.358.358.597.896.537 1.373 0 .299-.06.657-.179.956-.06.298-.179.537-.298.835z"/><path id="bmqem" d="M142.937 5702.033v-.836h.955v.836z"/><path id="bmqen" d="M141.862 5708.242c.18-.06.359-.06.538-.179a.721.721 0 0 0 .418-.418c.119-.239.119-.477.119-.716v-3.94h.955v2.865c.24.299.538.418.896.418.239 0 .477-.12.657-.298.179-.24.298-.538.298-.777v-4.478h.955v4.598c0 .179 0 .298-.06.477v.06l.06.06c.24.239.597.418.956.358h1.015v-5.553h.955v6.33h-1.91c-.18 0-.419-.06-.598-.12-.239-.06-.418-.239-.537-.358l-.12-.12-.238.06c-.299.358-.717.537-1.135.478h-.477v-.06h-.06c-.18-.06-.299-.12-.478-.18l-.179-.119v.24c.06.536-.12 1.133-.477 1.551a2.076 2.076 0 0 1-1.195.597z"/><path id="bmqeo" d="M154.878 5702.033v-.836h.955v.836z"/><path id="bmqep" d="M153.147 5702.033v-.836h.955v.836z"/><path id="bmqeq" d="M159.296 5703.705c-.179 0-.418 0-.597.06h-.12v2.447h1.672v-.12c.12-.357.18-.775.18-1.133.06-1.015-.597-1.254-1.135-1.254zm-2.806 3.343c-.478.06-.955-.239-1.194-.657l-.06-.119-.06-.12c-.06-.178-.06-.417-.06-.596v-1.732h-.119c-.179-.06-.418-.06-.597-.06-.537 0-1.194.24-1.194 1.314 0 .298.12.657.299.895.239.24.537.359.895.359h.896l-.299.776h-.776c-.358 0-.716-.06-1.015-.239-.298-.179-.597-.418-.716-.716-.18-.299-.239-.717-.239-1.075s.06-.717.298-1.075c.18-.298.478-.597.777-.716.358-.18.776-.299 1.194-.239.537 0 1.015.06 1.552.12v2.149c0 .239.06.537.18.716.178.18.357.239.596.239h.836v-3.164l1.612-.18c.418 0 .836.06 1.194.24.299.178.597.417.776.716.18.298.299.657.299 1.075-.06.716-.18 1.373-.478 2.03z"/><path id="bmqer" d="M167.476 5703.705c-.478 0-.896.12-1.314.358l-.12.06.06.119c.18.358.359.657.598.955.238.299.477.597.776.836l.06.06.06-.06c.298-.179.596-.358.835-.597s.358-.537.358-.836c0-.298-.179-.597-.418-.716a2.396 2.396 0 0 0-.895-.18zm2.686 3.343h-.06c-.835 0-1.611-.12-2.387-.298h-.12c-.895.238-1.85.298-2.806.298h-.597c-.358 0-.776-.12-1.015-.418-.239-.298-.358-.716-.358-1.134v-4.836h1.015v4.657c0 .239.06.537.179.716.179.18.358.239.597.239h.239c.477 0 .955 0 1.433-.12l.238-.06-.179-.178a16.42 16.42 0 0 1-1.134-1.672l.239-1.015c.358-.18.716-.298 1.074-.418.299-.12.657-.12.956-.12.358 0 .776.06 1.074.24.299.119.598.358.836.597.18.238.299.477.299.776 0 .298-.06.537-.239.776-.18.298-.358.537-.597.716l-.239.18.299.06c.358.059.776.059 1.134.059h.896v-5.553h.955v6.33z"/><path id="bmqes" d="M173.028 5707.048v-6.329h.956v6.33z"/><path id="bmqet" d="M177.148 5702.033v-.836h.955v.836z"/><path id="bmqeu" d="M178.88 5702.033v-.836h.955v.836z"/><path id="bmqev" d="M181.924 5702.212l.12-.478h.537l-.06-.179c-.06-.06-.06-.179-.06-.298 0-.239.06-.418.24-.597.179-.12.358-.24.597-.18.119 0 .238 0 .358.06l-.12.418h-.179c-.12 0-.239.06-.298.12-.06.06-.12.179-.12.358 0 .12 0 .239.12.358l-.06-.06h.955v.478z"/><path id="bmqew" d="M186.581 5708.899v-.836h.956v.836z"/><path id="bmqex" d="M184.85 5708.899v-.836h.955v.836z"/><path id="bmqey" d="M190.223 5704.302a.767.767 0 0 0-.597.239c-.179.179-.239.418-.239.656 0 .538.359.956.836 1.075h.06c.239 0 .478-.12.657-.298.179-.24.239-.478.239-.717 0-.18-.06-.298-.12-.418s-.179-.239-.358-.358c-.12-.18-.299-.18-.478-.18zm4.717 2.746c-.239 0-.418-.06-.657-.179-.239-.12-.418-.239-.597-.478l-.12-.119-.119.12c-.298.417-.776.596-1.253.596h-3.94c-.3 0-.538-.06-.837-.119-.239-.12-.418-.239-.597-.478l-.12-.119-.119.12c-.12.179-.298.358-.537.417a1.59 1.59 0 0 1-.716.18h-.657c-.299 0-.538-.06-.836-.12-.239-.12-.418-.239-.597-.478l-.12-.119-.119.12c-.12.179-.298.358-.537.417a1.59 1.59 0 0 1-.717.18h-1.433c-.358 0-.776-.12-1.015-.418-.238-.299-.358-.717-.358-1.135v-1.672h-.12c-.178-.06-.417-.06-.596-.06-.538 0-1.194.24-1.194 1.314 0 .299.119.657.298.896.239.239.537.358.896.358h.836l-.299.776h-.537c-.359 0-.717-.06-1.015-.239a2.058 2.058 0 0 1-.717-.716c-.179-.299-.239-.717-.239-1.075s.06-.716.299-1.074c.179-.299.478-.598.776-.717.358-.18.776-.298 1.194-.239.538 0 1.075.06 1.553.18v2.149c0 .239.06.537.179.716.179.18.358.239.597.239h.716c.239 0 .537-.12.657-.299.179-.238.298-.537.298-.776v-2.268h.956v2.388c0 .12 0 .298-.06.418v.06l.06.06c.12.178.298.238.477.298.359.06.776.06 1.135.06.239 0 .537-.12.656-.3.18-.238.299-.537.299-.775v-2.21h.955v2.389c0 .12 0 .298-.06.418v.06l.06.06c.12.119.299.238.478.298.18.06 1.612.06 1.612.06l-.239-.24c-.239-.238-.418-.597-.358-.955 0-.239.06-.537.239-.776.12-.239.358-.478.597-.597.597-.299 1.313-.299 1.85 0 .24.12.478.358.598.597s.179.478.179.776c0 .358-.12.657-.358.896l-.24.239h.538c.18 0 .358-.06.537-.18.18-.119.359-.298.478-.477.12-.239.18-.537.18-.836 0-.358-.06-.716-.24-1.015a2.41 2.41 0 0 0-.776-.776c-.358-.18-.776-.299-1.254-.239h-.477l-.358-.776h.835c.597 0 1.195.12 1.732.358.478.239.836.537 1.134 1.015.24.418.358.896.358 1.373 0 .299-.06.597-.119.896v.06l.06.06c.12.178.239.298.418.357.179.06.418.12.597.12h1.134v-5.553h.955v6.33z"/><path id="bmqez" d="M198.045 5707.048v-6.329H199v6.33z"/><path id="bmqeA" d="M100.606 5717.079c-.418-.538-.657-1.194-.597-1.851-.06-.657.18-1.314.657-1.851.418-.418 1.015-.657 1.672-.657.477 0 .955.12 1.373.358v.657h-.358a1.667 1.667 0 0 0-1.075-.358c-.418 0-.776.12-1.075.418a2.323 2.323 0 0 0-.418 1.373c0 1.254.478 1.85 1.373 1.91.299 0 .598-.06.836-.178v-1.195h-.716v-.597h1.612v2.15c-.478.239-1.075.418-1.672.418-.597.06-1.194-.18-1.612-.597z"/><path id="bmqeB" d="M105.323 5715.467h1.612c0-.24-.06-.538-.239-.777-.12-.179-.358-.238-.537-.238-.418.06-.717.418-.836 1.015zm0 .537c0 .298.12.597.298.836.18.179.478.298.717.239.358 0 .716-.12.955-.359h.299v.538c-.418.239-.896.418-1.374.418-.477 0-.955-.18-1.253-.478a2.129 2.129 0 0 1-.478-1.373c0-.478.12-1.015.478-1.373a1.298 1.298 0 0 1 1.194-.478c1.015 0 1.552.597 1.552 1.731v.299z"/><path id="bmqeC" d="M108.905 5714.034c.06 0 .18 0 .239.06.06.119.12.238.06.358a2.086 2.086 0 0 1 1.313-.478c.597 0 .955.358.955 1.015v2.687h-.776v-2.508c0-.18-.06-.298-.12-.418-.119-.06-.238-.12-.357-.12-.359 0-.717.12-1.015.359v2.687h-.777v-3.642z"/><path id="bmqeD" d="M112.905 5715.467h1.612c0-.24-.06-.538-.238-.777-.12-.179-.359-.238-.538-.238-.477.06-.716.418-.836 1.015zm0 .537c0 .298.12.597.299.836.179.179.478.298.716.239.359 0 .717-.12.956-.359h.298v.538c-.418.239-.895.418-1.373.418s-.955-.18-1.254-.478a2.129 2.129 0 0 1-.478-1.373c0-.478.12-1.015.478-1.373a1.298 1.298 0 0 1 1.194-.478c1.015 0 1.493.597 1.493 1.731v.299z"/><path id="bmqeE" d="M117.741 5714.69c-.358 0-.716.12-1.015.359v2.627h-.776v-3.642h.478c.06 0 .18 0 .239.12.06.118.12.238.06.357.238-.298.597-.477.955-.477.06 0 .179 0 .239.06v.656z"/><path id="bmqeF" d="M120.488 5716.78v-.716c-.18-.06-.418-.06-.597-.06-.538 0-.776.18-.776.597 0 .18.06.358.179.478.12.12.298.12.477.12.24 0 .538-.18.717-.419zm.478.896c-.12 0-.24 0-.299-.06a.456.456 0 0 1-.12-.299c-.298.24-.656.418-1.014.418-.299 0-.597-.06-.836-.298-.24-.239-.358-.537-.299-.836 0-.358.12-.657.418-.836.299-.179.657-.298 1.015-.298.239 0 .478 0 .776.119v-.418c0-.358-.239-.597-.656-.597-.359 0-.657.06-.956.299h-.298v-.598c.418-.238.836-.298 1.313-.298.358 0 .717.06 1.015.239.239.239.358.537.358.836v2.567z"/><path id="bmqeG" d="M122.16 5717.676v-4.836h.418c.179 0 .238 0 .298.119.06.12.06.239.06.418v4.358h-.776z"/><path id="bmqeH" d="M127.473 5713.735l-.656 1.97h1.313zm-1.97 3.702l1.612-4.597h.836l1.612 4.597v.239h-.776l-.418-1.314h-1.672l-.418 1.314h-.656v-.24z"/><path id="bmqeI" d="M132.429 5716.78v-2.746h.776v3.642h-.478c-.06 0-.119 0-.179-.06-.06-.12-.06-.18-.06-.299-.358.24-.776.418-1.253.418-.478.06-.955-.238-1.015-.776v-2.925h.776v2.567c-.06.239.12.478.358.537h.18c.298-.06.596-.179.895-.358z"/><path id="bmqeJ" d="M133.802 5714.034h.418v-.956h.776v.956h.776v.597h-.776v2.09c0 .119 0 .238.12.358.119.06.238.119.358.119h.358v.537c-.179.06-.418.06-.597.06-.478.06-.896-.239-1.015-.716V5714.69h-.418z"/><path id="bmqeK" d="M137.205 5714.452a2.086 2.086 0 0 1 1.314-.478c.657 0 .955.358.955 1.015v2.687h-.776v-2.508c0-.179-.06-.298-.12-.418-.119-.06-.238-.12-.358-.12-.358 0-.716.12-1.015.359v2.687h-.776v-4.836h.418c.18 0 .239 0 .299.06.06.119.06.298.06.417z"/><path id="bmqeL" d="M142.579 5716.78c.179-.298.298-.597.239-.955 0-.358-.06-.657-.24-.955-.178-.24-.417-.359-.716-.299a.989.989 0 0 0-.716.299c-.18.298-.299.597-.239.955 0 .358.06.657.239.955.358.358.955.418 1.313.06.06 0 .12 0 .12-.06zm-1.91.418a1.638 1.638 0 0 1-.478-1.373c0-.478.179-1.015.477-1.373a1.406 1.406 0 0 1 1.254-.478c.478 0 .896.18 1.254.478.358.358.537.895.477 1.373 0 .477-.179 1.015-.477 1.373-.776.657-1.851.657-2.508 0z"/><path id="bmqeM" d="M146.101 5714.69c-.358 0-.716.12-1.015.359v2.627h-.776v-3.642h.478c.06 0 .179 0 .179.12.06.118.12.238.12.357.238-.298.596-.477.955-.477.06 0 .179 0 .238.06v.656z"/><path id="bmqeN" d="M146.878 5717.676v-3.642h.417c.18 0 .24.06.299.12.06.178.06.298.06.477v3.045zm.119-4.06a.456.456 0 0 1-.12-.299c0-.12.06-.239.12-.298.06-.06.179-.12.298-.12.24 0 .418.18.418.478 0 .12-.06.239-.119.298-.18.06-.478.06-.597-.06z"/><path id="bmqeO" d="M148.25 5714.034h.419v-.956h.776v.956h.776v.597h-.776v2.09c0 .119.06.238.12.358.119.06.238.119.357.119h.359v.537c-.18.06-.418.06-.597.06-.478.06-.896-.239-1.015-.716V5714.69h-.418z"/><path id="bmqeP" d="M151.415 5718.512l.478-1.135-1.314-3.164v-.239h.717l1.015 2.448.895-2.448h.657v.239l-1.791 4.478h-.657z"/><path id="bmqeQ" d="M158.64 5716.78c.179-.298.298-.597.238-.955 0-.358-.06-.657-.239-.955-.179-.24-.418-.359-.716-.299a.989.989 0 0 0-.717.299c-.179.298-.298.597-.238.955 0 .358.06.657.238.955.359.358.956.418 1.314.06.12.06.12 0 .12-.06zm-1.911.418a1.638 1.638 0 0 1-.478-1.373c0-.478.18-1.015.478-1.373.716-.657 1.791-.657 2.448 0 .358.358.537.895.477 1.373 0 .477-.179 1.015-.477 1.373-.657.657-1.732.657-2.448 0z"/><path id="bmqeR" d="M160.072 5714.034h.418v-.24c-.06-.477.299-.895.776-1.014h.24c.178 0 .357 0 .537.06v.477h-.359c-.119 0-.238 0-.358.06-.06.12-.12.239-.12.358v.239h.717v.597h-.716v3.045h-.776v-3.045h-.418z"/><path id="bmqeS" d="M164.252 5717.019l2.507-3.582h-2.269v-.597h3.165v.656l-2.508 3.583h2.448v.597h-3.343z"/><path id="bmqeT" d="M170.162 5716.78v-.716c-.179-.06-.417-.06-.597-.06-.537 0-.776.18-.776.597 0 .18.06.358.18.478.119.12.298.12.477.12.299-.06.537-.18.716-.419zm.478.896c-.12 0-.239 0-.298-.06a.456.456 0 0 1-.12-.299c-.298.24-.657.418-1.015.418-.298 0-.597-.06-.836-.298a1.179 1.179 0 0 1-.358-.836c0-.358.12-.657.418-.836.299-.179.657-.298 1.015-.298.239 0 .478 0 .716.119v-.418c0-.358-.238-.597-.656-.597-.359 0-.657.12-.956.299h-.238v-.598c.418-.238.835-.298 1.313-.298.358 0 .717.06 1.015.239.239.239.358.537.358.836v2.567z"/><path id="bmqeU" d="M172.61 5715.646l1.374-1.612h.656v.238l-1.074 1.195.597.955c.239.418.477.716.597.955v.239h-.717l-1.015-1.612-.418.478v1.134h-.776v-4.836h.418c.18 0 .239.06.299.12.06.119.06.238.06.417z"/><path id="bmqeV" d="M177.327 5716.78v-.716c-.179-.06-.418-.06-.597-.06-.537 0-.776.18-.776.597 0 .18.06.358.179.478.12.12.298.12.478.12.298-.06.537-.18.716-.419zm.478.896c-.12 0-.24 0-.299-.06a.456.456 0 0 1-.12-.299c-.298.24-.656.418-1.014.418-.299 0-.597-.06-.836-.298-.239-.239-.358-.537-.299-.836 0-.358.12-.657.418-.836.299-.179.657-.298 1.015-.298.24 0 .478 0 .717.119v-.418c0-.358-.239-.597-.657-.597-.358 0-.657.12-.955.299h-.24v-.598c.419-.238.837-.298 1.314-.298.359 0 .717.06 1.015.239.24.239.359.537.359.836v2.567z"/><path id="bmqeW" d="M178.64 5714.034h.419v-.956h.776v.956h.776v.597h-.776v2.09c0 .119.06.238.12.358.118.06.238.119.357.119h.359v.537c-.18.06-.418.06-.598.06-.477.06-.895-.239-1.014-.716V5714.69h-.418z"/><path id="bmqeX" d="M189.686 5717.676v-4.24h-1.373v-.596h3.582v.597h-1.373v4.239z"/><path id="bmqeY" d="M194.462 5716.78v-.716c-.179-.06-.418-.06-.656-.06-.538 0-.777.18-.777.597 0 .18.06.358.18.478.119.12.298.12.477.12.299 0 .597-.18.776-.419zm.478.896c-.12 0-.239 0-.298-.06a.456.456 0 0 1-.12-.299c-.298.24-.657.418-1.015.418-.298 0-.597-.06-.836-.298-.239-.239-.358-.537-.298-.836 0-.358.12-.657.418-.836.298-.179.656-.298 1.015-.298.238 0 .477 0 .776.119v-.418c0-.358-.239-.597-.657-.597-.358 0-.657.06-.955.299h-.418v-.598c.418-.238.836-.298 1.313-.298.359 0 .717.06 1.015.239.24.239.359.537.359.836v2.567z"/><path id="bmqeZ" d="M195.836 5717.437l1.074-1.612-1.015-1.493v-.239h.717l.836 1.314.776-1.314h.597v.24l-.955 1.492c.06.12.418.657 1.074 1.612v.239h-.716l-.896-1.433-.895 1.433h-.657v-.24z"/><path id="bmqeaa" d="M184.611 5717.138c-.239 0-.537-.06-.716-.238a.767.767 0 0 1-.24-.598c0-.358.24-.716.538-.895l1.194 1.373c-.179.239-.477.358-.776.358zm.18-2.448l-.24.06c-.119-.179-.238-.358-.238-.597 0-.179.06-.298.179-.418.06-.06.12-.06.12-.06a.38.38 0 0 1 .357 0c.12.06.24.18.299.359.12.298 0 .537-.478.656zm1.372 1.97c.24-.477.418-.955.538-1.492v-.12h-.597c-.06.419-.18.837-.299 1.195l-.955-1.075c.06 0 .12 0 .179-.06.299-.06.597-.298.776-.537.18-.239.18-.537.06-.836a.88.88 0 0 0-.537-.597c-.478-.179-1.015-.12-1.374.239-.238.179-.358.478-.358.836 0 .298.12.597.299.836-.538.179-.956.716-.956 1.313 0 .358.12.717.359.955.298.24.716.418 1.134.359.478 0 .955-.18 1.254-.478l.418.478h.656v-.24z"/></defs><g><g transform="translate(-100 -5651)"><g><use fill="#ebebeb" xlink:href="#bmqea"/></g><g><use fill="#ebebeb" xlink:href="#bmqeb"/></g><g><use fill="#ebebeb" xlink:href="#bmqec"/></g><g><use fill="#ebebeb" xlink:href="#bmqed"/></g><g><use fill="#ebebeb" xlink:href="#bmqee"/></g><g><use fill="#ebebeb" xlink:href="#bmqef"/></g><g><use fill="#ebebeb" xlink:href="#bmqeg"/></g><g><use fill="#ebebeb" xlink:href="#bmqeh"/></g><g><use fill="#ebebeb" xlink:href="#bmqei"/></g><g><use fill="#ebebeb" xlink:href="#bmqej"/></g><g><use fill="#ebebeb" xlink:href="#bmqek"/></g><g><use fill="#ebebeb" xlink:href="#bmqel"/></g><g><use fill="#ebebeb" xlink:href="#bmqem"/></g><g><use fill="#ebebeb" xlink:href="#bmqen"/></g><g><use fill="#ebebeb" xlink:href="#bmqeo"/></g><g><use fill="#ebebeb" xlink:href="#bmqep"/></g><g><use fill="#ebebeb" xlink:href="#bmqeq"/></g><g><use fill="#ebebeb" xlink:href="#bmqer"/></g><g><use fill="#ebebeb" xlink:href="#bmqes"/></g><g><use fill="#ebebeb" xlink:href="#bmqet"/></g><g><use fill="#ebebeb" xlink:href="#bmqeu"/></g><g><use fill="#ebebeb" xlink:href="#bmqev"/></g><g><use fill="#ebebeb" xlink:href="#bmqew"/></g><g><use fill="#ebebeb" xlink:href="#bmqex"/></g><g><use fill="#ebebeb" xlink:href="#bmqey"/></g><g><use fill="#ebebeb" xlink:href="#bmqez"/></g><g><use fill="#ebebeb" xlink:href="#bmqeA"/></g><g><use fill="#ebebeb" xlink:href="#bmqeB"/></g><g><use fill="#ebebeb" xlink:href="#bmqeC"/></g><g><use fill="#ebebeb" xlink:href="#bmqeD"/></g><g><use fill="#ebebeb" xlink:href="#bmqeE"/></g><g><use fill="#ebebeb" xlink:href="#bmqeF"/></g><g><use fill="#ebebeb" xlink:href="#bmqeG"/></g><g><use fill="#ebebeb" xlink:href="#bmqeH"/></g><g><use fill="#ebebeb" xlink:href="#bmqeI"/></g><g><use fill="#ebebeb" xlink:href="#bmqeJ"/></g><g><use fill="#ebebeb" xlink:href="#bmqeK"/></g><g><use fill="#ebebeb" xlink:href="#bmqeL"/></g><g><use fill="#ebebeb" xlink:href="#bmqeM"/></g><g><use fill="#ebebeb" xlink:href="#bmqeN"/></g><g><use fill="#ebebeb" xlink:href="#bmqeO"/></g><g><use fill="#ebebeb" xlink:href="#bmqeP"/></g><g><use fill="#ebebeb" xlink:href="#bmqeQ"/></g><g><use fill="#ebebeb" xlink:href="#bmqeR"/></g><g><use fill="#ebebeb" xlink:href="#bmqeS"/></g><g><use fill="#ebebeb" xlink:href="#bmqeT"/></g><g><use fill="#ebebeb" xlink:href="#bmqeU"/></g><g><use fill="#ebebeb" xlink:href="#bmqeV"/></g><g><use fill="#ebebeb" xlink:href="#bmqeW"/></g><g><use fill="#ebebeb" xlink:href="#bmqeX"/></g><g><use fill="#ebebeb" xlink:href="#bmqeY"/></g><g><use fill="#ebebeb" xlink:href="#bmqeZ"/></g><g><use fill="#ebebeb" xlink:href="#bmqeaa"/></g></g></g></svg>