<svg xmlns="http://www.w3.org/2000/svg" xmlns:xlink="http://www.w3.org/1999/xlink" width="100" height="67" viewBox="0 0 100 67"><defs><path id="b0wma" d="M327.571 5653.323v-1.122h1.121v1.122z"/><path id="b0wmb" d="M350.824 5667.205v-1.122h1.12v1.122z"/><path id="b0wmc" d="M364.412 5664.882c.267-.134.507-.32.667-.56.16-.24.294-.535.347-.882.08-.347.107-.747.107-1.174v-7.822h-1.121v7.822c0 .32-.027.587-.054.8-.026.214-.08.401-.16.535a.68.68 0 0 1-.32.293 1.5 1.5 0 0 1-.534.08c-.107 0-.187 0-.267-.026a.923.923 0 0 1-.32-.08l-.294 1.067c.32.08.614.134.908.134.427 0 .774-.054 1.04-.187z"/><path id="b0wmd" d="M360.568 5652.468h-1.549v-.267a.57.57 0 0 1 .08-.32c.054-.053.16-.107.347-.107h.775V5651h-.801c-.427 0-.748.107-.988.347-.24.214-.347.587-.347 1.068v.908h2.456v-.855z"/><path id="b0wme" d="M348.581 5667.205v-1.122h1.121v1.122z"/><path id="b0wmf" d="M329.814 5653.323v-1.122h1.12v1.122z"/><path id="b0wmg" d="M355.522 5657.167c.16-.347.4-.614.694-.854.294-.24.614-.428.961-.561.347-.134.721-.187 1.095-.187h1.815l-.64.32v5.02h-1.122c-.427 0-.8-.054-1.175-.188a2.752 2.752 0 0 1-.96-.507 2.537 2.537 0 0 1-.668-.827c-.16-.32-.24-.695-.24-1.122-.027-.4.08-.747.24-1.094zm0 3.95c.427.294.908.535 1.468.668.56.134 1.148.214 1.762.214h.294l.374-.774v1.094c0 .587-.16 1.015-.508 1.255-.347.24-.8.374-1.414.374-.347 0-.668-.027-.935-.107-.267-.054-.587-.187-.934-.347l-.347 1.068c.427.16.8.267 1.148.347.32.08.667.106.987.106 1.095 0 1.87-.266 2.376-.774.481-.507.748-1.201.748-2.082v-7.715h-1.789c-.694 0-1.308.107-1.895.293-.56.187-1.068.454-1.468.801-.4.347-.721.748-.935 1.202a3.73 3.73 0 0 0-.347 1.521c0 .668.134 1.228.374 1.682.294.48.614.881 1.041 1.175z"/><path id="b0wmh" d="M323.887 5659.65c0-2.296 1.655-4.165 3.978-4.165h2.616l-.694.347v6.3c0 .427.027.828.107 1.175.053.213.107.374.16.56h-2.19c-2.322 0-4.004-1.895-4.004-4.19v-.027zm3.978 5.285h2.322v-.854c.027.027.054.08.08.107.16.24.401.427.668.56.267.134.614.187 1.014.187h20.396v-10.491h-1.121v9.424h-19.248a1.5 1.5 0 0 1-.534-.08.68.68 0 0 1-.32-.294 1.401 1.401 0 0 1-.16-.534 6.31 6.31 0 0 1-.054-.801v-7.715h-3.016c-3.097 0-5.206 2.456-5.206 5.232v.027c.027 2.803 2.082 5.232 5.179 5.232z"/><path id="b0wmi" d="M317.106 5662.159l.508 1.281-7.102-9.023h-1.12v10.492h1.147v-7.902l-.64-1.522 7.42 9.424h.962v-10.492h-1.175z"/><path id="b0wmj" d="M333.044 5681.647l6.434-6.14v-4.218h-17.22v4.805h8.837l3.284-2.109-8.17 8.223.882 3.55h2.322c3.124 0 4.992 1.175 4.992 3.23v.08c0 1.896-1.495 3.097-3.603 3.097-2.59 0-4.405-1.094-6.167-3.043l-3.871 3.684c2.189 2.59 5.366 4.405 9.93 4.405 5.687 0 9.184-3.524 9.184-8.33v-.08c0-4.751-3.39-6.567-6.834-7.154z"/><path id="b0wmk" d="M306.214 5659.703c0 2.376-1.708 4.298-4.11 4.298-2.403 0-4.139-1.949-4.139-4.325v-.026c0-2.376 1.709-4.299 4.111-4.299 2.403 0 4.138 1.95 4.138 4.325zm-4.11-5.446c-3.204 0-5.367 2.536-5.367 5.42v.026c0 2.883 2.136 5.393 5.34 5.393 3.203 0 5.365-2.537 5.365-5.42v-.026c0-2.91-2.135-5.393-5.339-5.393z"/><path id="b0wml" d="M362.57 5684.076c0 4.352-3.124 7.93-7.635 7.93-4.512 0-7.715-3.631-7.715-8.01v-.08c0-4.351 3.123-7.928 7.635-7.928 4.511 0 7.715 3.63 7.715 7.982zm-7.662-13.24c-7.875 0-13.588 5.926-13.588 13.16v.08c0 7.235 5.633 13.082 13.508 13.082 7.875 0 13.588-5.927 13.588-13.162v-.08c0-7.208-5.633-13.08-13.508-13.08z"/><path id="b0wmm" d="M293.507 5664.882v-10.465h1.175v10.465z"/><path id="b0wmn" d="M274.5 5693.82l1.094-.827 5.58-4.298c4.511-3.497 6.7-5.606 6.7-9.851v-.08c0-4.752-3.497-7.849-8.783-7.849-4.538 0-6.994 1.842-9.504 5.26l3.925 3.15c1.895-2.323 3.23-3.418 5.205-3.418 2.003 0 3.417 1.175 3.417 3.31 0 2.11-1.228 3.498-4.404 6.114l-8.49 6.941v4.432h18.874v-4.832h-9.744z"/><path id="b0wmo" d="M274.553 5664.989l4.511-10.572h-1.254l-3.578 8.596.107 1.148-.293-.72-3.07-7.449-.668-1.575H269l4.512 10.572z"/><path id="b0wmp" d="M280.693 5664.882v-10.465h1.175v10.465z"/><path id="b0wmq" d="M288.141 5659.089c-2.296-.48-2.856-1.041-2.856-2.029v-.027c0-.934.88-1.682 2.242-1.682 1.068 0 2.056.348 3.017 1.148l.694-.907c-1.068-.855-2.163-1.282-3.684-1.282-2.002 0-3.444 1.202-3.444 2.857v.027c0 1.708 1.121 2.509 3.524 3.016 2.216.454 2.723 1.015 2.723 2.002 0 1.042-.934 1.789-2.35 1.789-1.468 0-2.509-.48-3.603-1.468l-.721.854c1.255 1.121 2.616 1.682 4.298 1.682 2.082 0 3.577-1.175 3.577-2.963v-.027c0-1.629-1.068-2.483-3.417-2.99z"/><path id="b0wmr" d="M303.331 5669.18l1.282 1.228-1.228 1.281-1.282-1.228z"/><path id="b0wms" d="M306.294 5670.461l1.282 1.228 1.228-1.28-1.282-1.229z"/><path id="b0wmt" d="M304.48 5672.09l.987.961.96-1.014-.987-.962z"/><path id="b0wmu" d="M308.163 5672.624l.988.988.961-1.015-.988-.96z"/><path id="b0wmv" d="M302.824 5673.612l1.014.96.961-.987-1.014-.961z"/><path id="b0wmw" d="M306.188 5673.745l1.014.961.961-1.014-1.014-.961z"/><path id="b0wmx" d="M304.88 5674.893l.694.667.694-.694-.721-.694z"/><path id="b0wmy" d="M307.55 5675.427l.693.667.694-.694-.72-.694z"/><path id="b0wmz" d="M313.775 5672.244l-.4-2.179 2.206-.404.4 2.18z"/><path id="b0wmA" d="M310.817 5672.718l-.322-1.76 1.76-.321.322 1.76z"/><path id="b0wmB" d="M314.239 5675.17l-.323-1.758 1.76-.323.322 1.76z"/><path id="b0wmC" d="M311.74 5675.032l-.25-1.365 1.366-.25.25 1.365z"/><path id="b0wmD" d="M314.387 5677.652l-.25-1.366 1.365-.25.25 1.366z"/><path id="b0wmE" d="M309.686 5675.593l-.25-1.365 1.365-.25.25 1.365z"/><path id="b0wmF" d="M312.168 5677.382l-.25-1.365 1.365-.25.25 1.365z"/><path id="b0wmG" d="M310.343 5677.164l-.178-.972.972-.178.178.972z"/><path id="b0wmH" d="M312.21 5679.136l-.179-.971.972-.178.178.972z"/><path id="b0wmI" d="M319.883 5677.216l-.961 2.028 2.029.935.96-2.002z"/><path id="b0wmJ" d="M317.026 5676.308l-.774 1.602 1.629.774.774-1.629z"/><path id="b0wmK" d="M318.361 5680.259l-.774 1.628 1.628.748.748-1.602z"/><path id="b0wmL" d="M316.225 5679.058l-.587 1.254 1.255.588.614-1.255z"/><path id="b0wmM" d="M316.866 5682.715l-.587 1.255 1.255.614.614-1.255z"/><path id="b0wmN" d="M314.25 5678.31l-.614 1.255 1.281.587.588-1.255z"/><path id="b0wmO" d="M315.211 5681.22l-.587 1.255 1.254.587.588-1.255z"/><path id="b0wmP" d="M313.69 5680.339l-.401.881.88.427.428-.908z"/><path id="b0wmQ" d="M314.511 5684.342l-.892-.424.425-.892.892.424z"/><path id="b0wmR" d="M320.977 5686.853l-1.949 1.068 1.068 1.949 1.95-1.068z"/><path id="b0wmS" d="M319.215 5684.424l-1.575.854.855 1.575 1.575-.854z"/><path id="b0wmT" d="M317.934 5688.428l-1.548.854.854 1.575 1.575-.88z"/><path id="b0wmU" d="M316.946 5686.212l-1.228.668.668 1.2 1.228-.667z"/><path id="b0wmV" d="M315.318 5689.55l-1.228.667.667 1.228 1.228-.668z"/><path id="b0wmW" d="M315.772 5684.424l-1.228.667.667 1.228 1.228-.667z"/><path id="b0wmX" d="M314.837 5687.36l-1.228.667.694 1.229 1.202-.695z"/><path id="b0wmY" d="M314.143 5685.758l-.854.454.454.881.854-.48z"/><path id="b0wmZ" d="M312.835 5688.134l-.854.48.454.855.854-.48z"/><path id="b0wmaa" d="M315.94 5697.501l-2.226-.275.272-2.199 2.225.275z"/><path id="b0wmab" d="M315.972 5694.064l-1.775-.22.22-1.775 1.775.22z"/><path id="b0wmac" d="M312.617 5696.574l-1.775-.22.22-1.775 1.775.22z"/><path id="b0wmad" d="M313.154 5693.791l-1.378-.17.17-1.378 1.378.17z"/><path id="b0wmae" d="M309.873 5695.553l-1.377-.17.17-1.378 1.378.17z"/><path id="b0wmaf" d="M313.223 5691.668l-1.377-.17.17-1.378 1.378.17z"/><path id="b0wmag" d="M310.777 5693.5l-1.378-.17.17-1.378 1.378.17z"/><path id="b0wmah" d="M311.206 5691.382l-.98-.121.121-.98.98.12z"/><path id="b0wmai" d="M308.73 5692.546l-.98-.122.121-.98.98.121z"/><path id="b0wmaj" d="M307.416 5699.347l-1.655-1.522-1.495 1.655 1.628 1.495z"/><path id="b0wmak" d="M307.095 5668.166l-1.628-1.495-1.522 1.628 1.655 1.495z"/><path id="b0wmal" d="M309.15 5696.917l-1.307-1.228-1.228 1.308 1.308 1.228z"/><path id="b0wmam" d="M304.96 5696.97l-1.308-1.2-1.228 1.307 1.308 1.202z"/><path id="b0wman" d="M306.748 5695.316l-1.014-.935-.961 1.015 1.014.934z"/><path id="b0wmao" d="M303.064 5694.835l-1.04-.934-.935 1.014 1.014.934z"/><path id="b0wmap" d="M308.056 5693.66l-1.014-.96-.961 1.014 1.041.96z"/><path id="b0wmaq" d="M304.986 5693.714l-1.014-.961-.961 1.014 1.041.961z"/><path id="b0wmar" d="M306.294 5692.54l-.72-.668-.668.694.721.667z"/><path id="b0wmas" d="M303.625 5692.032l-.72-.667-.668.72.72.668z"/><path id="b0wmat" d="M295.696 5697.942l-.435-2.173 2.199-.44.435 2.172z"/><path id="b0wmau" d="M298.985 5696.885l-.351-1.754 1.753-.351.352 1.753z"/><path id="b0wmav" d="M295.548 5694.51l-.352-1.753 1.753-.352.352 1.754z"/><path id="b0wmaw" d="M298.33 5694.132l-.273-1.361 1.361-.273.273 1.361z"/><path id="b0wmax" d="M300.386 5693.542l-.273-1.361 1.361-.273.273 1.362z"/><path id="b0wmay" d="M297.874 5691.78l-.273-1.362 1.361-.273.273 1.361z"/><path id="b0wmaz" d="M300.019 5691.507l-.194-.97.969-.193.193.969z"/><path id="b0wmaA" d="M298.126 5689.56l-.194-.97.969-.194.194.969z"/><path id="b0wmaB" d="M291.238 5690.43l.934-2.029-2.029-.907-.934 2.028z"/><path id="b0wmaC" d="M294.121 5691.311l.72-1.628-1.6-.721-.748 1.628z"/><path id="b0wmaD" d="M292.733 5687.36l.72-1.602-1.628-.747-.72 1.628z"/><path id="b0wmaE" d="M294.862 5688.54l-1.263-.575.576-1.263 1.263.575z"/><path id="b0wmaF" d="M296.55 5691.712l.588-1.255-1.282-.587-.56 1.254z"/><path id="b0wmaG" d="M294.164 5684.882l-1.263-.576.576-1.263 1.263.576z"/><path id="b0wmaH" d="M296.874 5689.26l-1.263-.577.576-1.263 1.263.577z"/><path id="b0wmaI" d="M295.837 5686.363l-1.262-.577.576-1.262 1.263.576z"/><path id="b0wmaJ" d="M297.378 5687.227l.4-.881-.88-.4-.401.88z"/><path id="b0wmaK" d="M297.004 5684.53l.4-.88-.88-.401-.427.88z"/><path id="b0wmaL" d="M289.983 5680.846l1.949-1.121-1.095-1.922-1.948 1.094z"/><path id="b0wmaM" d="M291.798 5683.222l1.576-.88-.908-1.55-1.549.882z"/><path id="b0wmaN" d="M293 5679.218l1.548-.881-.88-1.549-1.55.881z"/><path id="b0wmaO" d="M294.04 5681.407l1.202-.694-.667-1.202-1.228.695z"/><path id="b0wmaP" d="M295.616 5678.043l1.201-.694-.667-1.201-1.228.694z"/><path id="b0wmaQ" d="M295.242 5683.169l1.228-.694-.694-1.202-1.228.694z"/><path id="b0wmaR" d="M296.123 5680.232l1.202-.694-.695-1.201-1.2.694z"/><path id="b0wmaS" d="M296.844 5681.807l.854-.48-.48-.855-.855.508z"/><path id="b0wmaT" d="M298.125 5679.405l.855-.48-.48-.855-.855.507z"/><path id="b0wmaU" d="M296.853 5672.554l-2.23-.239.235-2.203 2.23.238z"/><path id="b0wmaV" d="M296.472 5675.496l-1.779-.19.19-1.779 1.779.19z"/><path id="b0wmaW" d="M299.785 5672.943l-1.778-.19.19-1.778 1.779.19z"/><path id="b0wmaX" d="M298.927 5675.312l-1.38-.148.147-1.38 1.38.148z"/><path id="b0wmaY" d="M302.204 5673.492l-1.38-.147.147-1.38 1.38.147z"/><path id="b0wmaZ" d="M298.893 5677.414l-1.38-.148.147-1.38 1.38.147z"/><path id="b0wmba" d="M301.323 5675.539l-1.38-.148.148-1.38 1.38.148z"/><path id="b0wmbb" d="M300.588 5677.23l-.982-.104.105-.982.982.105z"/><path id="b0wmbc" d="M303.032 5676.03l-.983-.104.105-.983.982.105z"/><path id="b0wmbd" d="M312.568 5685.198c-.16-.107-.48-.24-.88-.374a5.293 5.293 0 0 0-2.43-.187 4.978 4.978 0 0 0-1.041.267c-.027 0-.08.027-.107.027l-.56.24c-.161.08-.321.16-.481.267-.347.214-.721.454-1.068.72-.4-2.375-.214-4.564-.107-5.659.828.534.614 2.002.427 2.43 0 0 0 .026.027 0 1.041-1.228.534-2.59.32-2.937 0 0 0-.027 0 0a2.239 2.239 0 0 1 .854 1.628c.027.214 0 .4 0 .561v.134a2.39 2.39 0 0 0 0-2.216 2.51 2.51 0 0 0-.48-.641l-.187-.187v-.027c.053.027.134.027.187.054.187.053.347.16.48.24.32.24.534.56.668.881.107.267.16.56.16.828h.027c.187-.721.08-1.282-.16-1.682a1.893 1.893 0 0 0-.668-.64c-.16-.108-.32-.161-.48-.214a.78.78 0 0 0-.24-.054v-.027h.213c.187 0 .32 0 .48.027.294.054.508.16.668.267.267.187.4.4.454.48h.026c-.026-.373-.213-.667-.453-.907a1.602 1.602 0 0 0-.668-.347c-.16-.053-.32-.053-.48-.08-.214 0-.428.027-.588.107 0 0-.026 0 0 0a1.23 1.23 0 0 1 .614-.428c.16-.053.32-.053.48-.053.134 0 .295.053.401.08 0 0 .027 0 0 0a1.512 1.512 0 0 0-.4-.32c-.16-.08-.32-.134-.48-.16-.428-.054-.855.133-1.149.56h-.026l-.16-.32a4.542 4.542 0 0 1-.267-.854h-.027c-.054.293-.134.614-.267.88l-.16.321h-.027c-.507-.748-1.442-.748-2.029-.08 0 0 0 .027 0 0 .374-.187 1.095-.134 1.468.4 0 0 0 .027 0 0-.56-.24-1.414-.08-1.895.454-.16.187-.267.454-.32.748 0 0 0 .026.026 0 .027-.08.134-.214.294-.347.267-.24.747-.48 1.522-.4v.026c-.4.053-1.228.4-1.522 1.201-.134.347-.16.801-.027 1.362h.027v-.027c0-.748.427-1.735 1.468-1.976 0 0 .027 0 0 .027-1.174 1.015-1.04 2.296-.667 3.044h.027c-.054-.561-.08-1.576.854-2.323 0 0 .027 0 0 0-.214.347-.721 1.708.32 2.937h.027c-.187-.428-.4-1.896.427-2.43.08 1.095.294 3.284-.107 5.66-.667-.507-1.388-.961-2.082-1.228a3.362 3.362 0 0 0-.267-.08c-.72-.24-1.388-.294-1.976-.294-.934.053-1.655.32-2.028.507-.08.027-.134.08-.187.107-.027 0 0 .053.026.027.054-.027.134-.027.187-.054a5.436 5.436 0 0 1 2.03-.213c.693.053 1.36.267 1.975.534.854.4 1.655.934 2.349 1.521-.988.881-1.842 1.709-2.35 2.003-.026.026-.053.026-.08.053-.133-.16-.346-.267-.56-.214-.214.054-.374.214-.4.4a.496.496 0 0 0 .106.481c.267.267.588.294.961.134.694-.294 1.549-1.202 2.617-2.163.08-.08.186-.16.267-.24.08.08.186.16.267.24.48.428.907.855 1.308 1.228.16.16.32.294.48.4.24.188.454.348.668.455.4.213.747.24 1.04-.027l.054-.053c.08-.08.16-.294.107-.48a.554.554 0 0 0-.16-.268.508.508 0 0 0-.267-.133.53.53 0 0 0-.56.213c-.081-.026-.134-.08-.241-.133-.187-.134-.4-.32-.668-.534a6.905 6.905 0 0 1-.48-.427c-.32-.294-.694-.614-1.068-.961.347-.294.694-.561 1.068-.801.16-.107.32-.214.48-.294.214-.133.428-.24.668-.347a8.33 8.33 0 0 1 1.041-.4 5.655 5.655 0 0 1 2.43-.16c.293.053.56.106.854.213.053.053.08.027.053.027"/><path id="b0wmbe" d="M274.179 5710.105v-.667h.667v.667z"/><path id="b0wmbf" d="M310.219 5707.943c-.214-.08-.4-.16-.56-.294a1.305 1.305 0 0 1-.375-.48c-.08-.187-.133-.4-.133-.641 0-.24.053-.427.16-.614.107-.187.24-.347.4-.48.16-.134.348-.24.561-.321.214-.08.427-.107.64-.107h.642v3.07h-.641c-.267-.053-.507-.08-.694-.133zm8.169.72v-4.324h-.64v3.684h-2.404v-3.684h-.64v3.684h-2.536v-3.684h-1.015c-.4 0-.774.053-1.094.16-.32.107-.614.267-.828.454-.24.187-.4.427-.534.694-.133.267-.187.56-.187.854 0 .374.08.694.214.961.133.267.347.507.587.668.24.187.507.293.828.4.32.08.667.134 1.014.134z"/><path id="b0wmbg" d="M304.72 5708.69v-5.74h.64v5.74z"/><path id="b0wmbh" d="M311.5 5703.618v-.667h.668v.667z"/><path id="b0wmbi" d="M317.747 5710.078v-.667h.667v.667z"/><path id="b0wmbj" d="M275.3 5710.105v-.667h.668v.667z"/><path id="b0wmbk" d="M287.954 5708.023l-.988-2.456c.24-.214.508-.347.748-.454.267-.107.534-.134.8-.134.295 0 .561.054.855.16.294.107.534.268.72.428l-.987 2.456h-1.148zm-3.55 0h-.641c-.24 0-.454-.027-.667-.107-.214-.053-.4-.16-.561-.294a1.305 1.305 0 0 1-.374-.48c-.08-.187-.133-.4-.133-.64 0-.241.053-.428.16-.642.107-.186.24-.347.4-.48.16-.134.347-.24.56-.32.215-.08.428-.107.642-.107h.64v3.07zm17.806 0h-1.041c-.374 0-.668-.054-.881-.16a1.252 1.252 0 0 1-.507-.48 3.68 3.68 0 0 0 .053-.588v-2.056h-.64v2.163c0 .373-.108.667-.294.88-.187.214-.508.321-.908.321-.187 0-.347-.027-.507-.08a1.005 1.005 0 0 1-.4-.24 1.714 1.714 0 0 1-.268-.347 1.257 1.257 0 0 1-.106-.428v-2.269h-.641v2.216c0 .187-.027.374-.08.507-.054.134-.134.24-.24.347-.107.08-.214.16-.348.187-.133.054-.267.054-.4.054h-1.228v-3.284h-.64v3.284h-3.364l1.12-2.67a4.16 4.16 0 0 0-.533-.427c-.187-.134-.4-.24-.587-.347a2.922 2.922 0 0 0-.614-.24 2.424 2.424 0 0 0-1.228 0 2.449 2.449 0 0 0-.614.24 4.25 4.25 0 0 0-.588.347 4.16 4.16 0 0 0-.534.427l1.122 2.67h-2.216v-3.685h-1.015c-.4 0-.747.054-1.068.16a2.46 2.46 0 0 0-.827.454c-.24.187-.4.428-.534.695-.134.267-.187.56-.187.88 0 .374.08.695.214.962.133.267.32.48.587.667.24.16.534.294.854.374.32.08.668.133 1.015.133h.373v.187c0 .347-.106.587-.293.72-.187.134-.454.215-.801.215-.187 0-.374-.027-.534-.054-.16-.027-.347-.107-.534-.187l-.187.614c.24.08.454.16.64.214.188.053.375.08.562.08.614 0 1.067-.16 1.361-.454.294-.294.427-.694.427-1.201v-.16h9.931c.32 0 .587-.054.828-.187.24-.134.427-.32.587-.534.16.267.374.454.64.587.268.134.588.214.962.214.373 0 .72-.054.988-.187.266-.134.48-.347.614-.614.053.08.106.187.186.267.08.08.187.16.294.24.134.08.267.133.454.16.133.027.294.054.454.054h1.842v-5.74h-.641v5.099z"/><path id="b0wmbl" d="M271.99 5703.618v-.667h.667v.667z"/><path id="b0wmbm" d="M336.701 5703.618v-.667h.668v.667z"/><path id="b0wmbn" d="M331.042 5708.69v-5.74h.64v5.74z"/><path id="b0wmbo" d="M310.379 5703.618v-.667h.667v.667z"/><path id="b0wmbp" d="M280.373 5706.154c0-.24-.027-.48-.107-.694-.054-.214-.16-.4-.32-.56-.16-.187-.374-.32-.561-.428a2.232 2.232 0 0 0-.774-.133h-.48v.64h.56c.16 0 .293.027.427.107.133.054.24.16.347.267.08.107.16.24.187.374.026.133.053.294.053.48v1.843h-2.99v.64h3.63v-2.536z"/><path id="b0wmbq" d="M364.892 5708.69v-5.74h.641v5.74z"/><path id="b0wmbr" d="M337.823 5703.618v-.667h.667v.667z"/><path id="b0wmbs" d="M359.607 5707.756c-.08.213-.214.374-.348.534-.16.16-.32.267-.533.347-.214.08-.428.133-.668.133a1.613 1.613 0 0 1-1.148-.48c-.133-.16-.267-.32-.347-.534a1.835 1.835 0 0 1-.133-.64c0-.241.053-.455.133-.642.08-.213.187-.373.347-.533.134-.16.32-.267.507-.374a1.749 1.749 0 0 1 1.335 0c.214.08.374.213.534.347.16.16.267.32.347.534.08.213.134.427.134.667-.027.214-.054.427-.16.64zm-6.194 0c-.08.213-.213.374-.347.534-.16.16-.32.267-.534.347-.213.08-.427.133-.667.133a1.613 1.613 0 0 1-1.148-.48c-.134-.16-.267-.32-.347-.534a1.835 1.835 0 0 1-.134-.64c0-.241.054-.455.134-.642.08-.213.187-.373.347-.533.133-.16.32-.267.507-.374.214-.08.427-.134.667-.134.24 0 .48.054.668.134.213.08.374.213.534.347.16.16.267.32.347.534.08.213.133.427.133.667-.026.214-.08.427-.16.64zm-16.204.267c-.24 0-.454-.027-.668-.107-.213-.08-.4-.16-.56-.294a1.305 1.305 0 0 1-.374-.48c-.08-.187-.134-.4-.134-.64 0-.241.054-.428.16-.615.107-.187.24-.347.4-.48.161-.134.348-.24.562-.32.213-.08.427-.107.64-.107h.64v3.043zm25.761-5.072h.054zm-.587 0v5.099h-2.19a2.25 2.25 0 0 0 .188-.935c0-.32-.054-.64-.187-.934a2.997 2.997 0 0 0-.48-.748 2.002 2.002 0 0 0-.748-.48 2.648 2.648 0 0 0-.935-.187c-.32 0-.614.053-.907.187a2.71 2.71 0 0 0-.721.507 2.002 2.002 0 0 0-.48.748c-.107.293-.187.587-.187.907 0 .16.026.347.053.48.027.16.08.321.133.455h-1.975a2.25 2.25 0 0 0 .187-.935c0-.32-.054-.64-.187-.934-.107-.294-.294-.534-.48-.748a2.002 2.002 0 0 0-.748-.48 2.648 2.648 0 0 0-.934-.187c-.32 0-.614.053-.908.187a2.71 2.71 0 0 0-.72.507 2.002 2.002 0 0 0-.481.748c-.107.293-.187.587-.187.907 0 .16.026.347.053.48.027.16.08.321.134.455h-2.03v-5.1h-.64v5.1h-2.029v-.988c0-.24-.027-.48-.107-.694-.053-.214-.16-.4-.293-.56a1.742 1.742 0 0 0-.56-.428 2.278 2.278 0 0 0-.802-.134h-2.83l1.202-2.295h-.694l-1.228 2.295c.026.134.053.267.106.348.054.08.107.186.187.293h3.257c.214 0 .374.027.534.08a.813.813 0 0 1 .347.24c.08.107.16.24.187.374.027.134.053.294.053.454v.988h-5.926v-3.684h-1.015c-.4 0-.774.053-1.094.16a2.46 2.46 0 0 0-.828.454c-.24.187-.4.427-.534.694-.133.267-.187.56-.187.854 0 .374.08.694.214.961s.347.507.587.668c.24.187.508.293.828.4.32.08.667.134 1.014.134h12.681c.214.213.454.4.748.533.293.134.587.187.934.187.347 0 .667-.053.961-.187.294-.133.56-.293.774-.533h2.803c.214.213.454.4.748.533.293.134.587.187.934.187.347 0 .668-.053.961-.187.294-.133.56-.293.774-.533h3.257v-5.713z"/><path id="b0wmbt" d="M269.64 5706.501c0-.24.054-.427.16-.614.108-.187.241-.347.401-.48.16-.134.347-.24.561-.32.214-.08.427-.107.64-.107h.641v3.07h-.667c-.24 0-.454-.027-.667-.107-.214-.08-.4-.16-.561-.294a1.305 1.305 0 0 1-.374-.48 1.859 1.859 0 0 1-.133-.668zm.988 2.056c.32.08.668.133 1.015.133h4.191v-4.324h-.64v3.684h-2.537v-3.685h-1.014c-.4 0-.774.054-1.095.16a2.46 2.46 0 0 0-.827.455c-.24.186-.4.427-.534.694-.134.267-.187.56-.187.854 0 .374.08.694.214.96.133.268.347.508.587.668.24.187.507.294.827.4z"/><path id="b0wmbu" d="M315.398 5710.105v-.667h.667v.667z"/><path id="b0wmbv" d="M314.277 5710.105v-.667h.667v.667z"/><path id="b0wmbw" d="M323.006 5705.594c.24-.214.507-.348.748-.454.267-.107.534-.134.8-.134.294 0 .561.054.855.16.294.107.534.267.72.428l-.987 2.456h-1.148zm-2.109 3.897c.054-.187.054-.427.054-.667v-.16h8.222v-5.74h-.64v5.099h-2.724l1.122-2.67a4.159 4.159 0 0 0-.534-.427c-.187-.133-.4-.24-.588-.347a2.922 2.922 0 0 0-.614-.24 2.424 2.424 0 0 0-1.228 0 2.448 2.448 0 0 0-.614.24c-.213.107-.4.214-.587.347a4.159 4.159 0 0 0-.534.427l1.121 2.67h-2.376v-3.684h-.64v4.458c0 .187 0 .347-.027.454a.752.752 0 0 1-.107.294.359.359 0 0 1-.187.16.96.96 0 0 1-.293.053h-.16c-.054 0-.107-.027-.187-.053l-.16.614c.186.053.346.08.507.08.24 0 .427-.027.587-.107a.888.888 0 0 0 .374-.32c.106-.107.16-.294.213-.48z"/><path id="b0wmbx" d="M270.869 5703.618v-.667h.667v.667z"/><path id="b0wmby" d="M273.592 5712.882h-.988l-2.162 2.269v-2.27h-.828v4.539h.828v-1.308l.694-.721 1.575 2.029h.96l-1.975-2.59z"/><path id="b0wmbz" d="M274.42 5717.447v-4.565h.8v4.565z"/><path id="b0wmbA" d="M279.652 5716.032l-2.456-3.15h-.748v4.538h.801v-3.23l2.51 3.23h.667v-4.538h-.774z"/><path id="b0wmbB" d="M283.763 5715.578h1.175v.854a1.844 1.844 0 0 1-1.095.347c-.934 0-1.548-.694-1.548-1.628 0-.881.64-1.602 1.495-1.602.587 0 .934.187 1.281.48l.507-.614c-.48-.4-.96-.614-1.762-.614-1.388 0-2.349 1.095-2.349 2.35 0 1.335.934 2.349 2.376 2.349.8 0 1.468-.32 1.895-.72v-1.923h-1.948v.72z"/><path id="b0wmbC" d="M290.09 5715.177c0 .881-.614 1.549-1.575 1.549h-.908v-3.097h.908c.96-.027 1.575.64 1.575 1.548zm-1.575-2.295h-1.709v4.565h1.709c1.441 0 2.43-.988 2.43-2.27 0-1.334-.989-2.295-2.43-2.295z"/><path id="b0wmbD" d="M295.643 5715.177c0 .881-.641 1.602-1.549 1.602-.907 0-1.548-.747-1.548-1.628 0-.881.64-1.602 1.548-1.602.881-.027 1.549.72 1.549 1.628zm-1.549-2.376c-1.415 0-2.402 1.068-2.402 2.35 0 1.281.987 2.349 2.376 2.349 1.415 0 2.402-1.068 2.402-2.35 0-1.307-.987-2.349-2.376-2.349z"/><path id="b0wmbE" d="M299.727 5715.017l-1.388-2.135h-.854v4.538h.774v-3.257l1.441 2.136h.027l1.442-2.136v3.257h.8v-4.538h-.854z"/><path id="b0wmbF" d="M308.83 5715.177c0 .881-.64 1.602-1.548 1.602-.907 0-1.548-.747-1.548-1.628 0-.881.64-1.602 1.548-1.602.908-.027 1.549.72 1.549 1.628zm-1.548-2.376c-1.415 0-2.402 1.068-2.402 2.35 0 1.281.987 2.349 2.375 2.349 1.415 0 2.403-1.068 2.403-2.35.027-1.307-.96-2.349-2.376-2.349z"/><path id="b0wmbG" d="M310.673 5717.42h.8v-1.842h2.323v-.72h-2.322v-1.256h2.616v-.72h-3.417z"/><path id="b0wmbH" d="M318.681 5714.777c-.88-.214-1.094-.374-1.094-.72 0-.294.267-.535.747-.535.428 0 .828.16 1.228.48l.428-.613c-.454-.374-.988-.56-1.656-.56-.907 0-1.548.533-1.548 1.334 0 .854.56 1.121 1.522 1.361.854.187 1.04.374 1.04.695 0 .347-.32.56-.8.56-.56 0-1.014-.213-1.442-.587l-.48.56c.56.481 1.201.721 1.895.721.961 0 1.629-.507 1.629-1.361 0-.748-.507-1.095-1.469-1.335z"/><path id="b0wmbI" d="M322.179 5715.631l.774-1.815.8 1.815zm.427-2.803l-2.002 4.592h.827l.48-1.095h2.163l.454 1.095h.854l-2.002-4.592z"/><path id="b0wmbJ" d="M328.96 5715.498c0 .827-.428 1.281-1.149 1.281-.72 0-1.147-.454-1.147-1.308v-2.59h-.801v2.617c0 1.335.747 2.002 1.948 2.002 1.202 0 1.976-.694 1.976-2.056v-2.59h-.8v2.644z"/><path id="b0wmbK" d="M334.219 5715.177c0 .881-.614 1.549-1.576 1.549h-.907v-3.097h.907c.935-.027 1.576.64 1.576 1.548zm-1.576-2.295h-1.708v4.565h1.708c1.442 0 2.43-.988 2.43-2.27-.027-1.334-1.015-2.295-2.43-2.295z"/><path id="b0wmbL" d="M336.087 5717.447v-4.565h.801v4.565z"/><path id="b0wmbM" d="M341.266 5715.631l.775-1.815.8 1.815zm.4-2.803l-2.001 4.592h.827l.48-1.095h2.163l.454 1.095h.854l-2.002-4.592z"/><path id="b0wmbN" d="M345.992 5715.124v-1.522h1.174c.587 0 .935.267.935.748 0 .454-.374.774-.935.774zm2.936-.8c0-.401-.133-.748-.374-.989-.293-.293-.747-.453-1.308-.453h-2.029v4.565h.801v-1.602h.988l1.121 1.602h.935l-1.228-1.736c.64-.187 1.094-.64 1.094-1.388z"/><path id="b0wmbO" d="M351.25 5715.631l.775-1.815.8 1.815zm.428-2.803l-2.002 4.592h.827l.48-1.095h2.163l.454 1.095h.854l-2.002-4.592z"/><path id="b0wmbP" d="M358.192 5716.085c0 .4-.32.614-.881.614h-1.335v-1.255h1.281c.614.027.935.267.935.641zm-2.216-2.51h1.148c.507 0 .8.214.8.588 0 .427-.346.614-.854.614h-1.094zm2.109 1.496zm.64-1.015c0-.293-.106-.56-.293-.747-.267-.267-.667-.4-1.201-.4h-2.056v4.564h2.109c1.014 0 1.682-.427 1.682-1.254.027-.668-.347-.988-.881-1.148.347-.187.64-.48.64-1.015z"/><path id="b0wmbQ" d="M359.98 5717.447v-4.565h.801v4.565z"/><path id="b0wmbR" d="M363.157 5715.631l.774-1.815.801 1.815zm1.148-2.803h-.747l-2.003 4.592h.828l.48-1.095h2.163l.454 1.095h.854z"/></defs><g><g transform="translate(-269 -5651)"><g><g><use fill="#ebebeb" xlink:href="#b0wma"/></g><g><use fill="#ebebeb" xlink:href="#b0wmb"/></g><g><use fill="#ebebeb" xlink:href="#b0wmc"/></g><g><use fill="#ebebeb" xlink:href="#b0wmd"/></g><g><use fill="#ebebeb" xlink:href="#b0wme"/></g><g><use fill="#ebebeb" xlink:href="#b0wmf"/></g><g><use fill="#ebebeb" xlink:href="#b0wmg"/></g><g><use fill="#ebebeb" xlink:href="#b0wmh"/></g><g><use fill="#ebebeb" xlink:href="#b0wmi"/></g><g><use fill="#ebebeb" xlink:href="#b0wmj"/></g><g><use fill="#ebebeb" xlink:href="#b0wmk"/></g><g><use fill="#ebebeb" xlink:href="#b0wml"/></g><g><use fill="#ebebeb" xlink:href="#b0wmm"/></g><g><use fill="#ebebeb" xlink:href="#b0wmn"/></g><g><use fill="#ebebeb" xlink:href="#b0wmo"/></g><g><use fill="#ebebeb" xlink:href="#b0wmp"/></g><g><use fill="#ebebeb" xlink:href="#b0wmq"/></g></g><g><use fill="#ebebeb" xlink:href="#b0wmr"/></g><g><use fill="#ebebeb" xlink:href="#b0wms"/></g><g><use fill="#ebebeb" xlink:href="#b0wmt"/></g><g><use fill="#ebebeb" xlink:href="#b0wmu"/></g><g><use fill="#ebebeb" xlink:href="#b0wmv"/></g><g><use fill="#ebebeb" xlink:href="#b0wmw"/></g><g><use fill="#ebebeb" xlink:href="#b0wmx"/></g><g><use fill="#ebebeb" xlink:href="#b0wmy"/></g><g><use fill="#ebebeb" xlink:href="#b0wmz"/></g><g><use fill="#ebebeb" xlink:href="#b0wmA"/></g><g><use fill="#ebebeb" xlink:href="#b0wmB"/></g><g><use fill="#ebebeb" xlink:href="#b0wmC"/></g><g><use fill="#ebebeb" xlink:href="#b0wmD"/></g><g><use fill="#ebebeb" xlink:href="#b0wmE"/></g><g><use fill="#ebebeb" xlink:href="#b0wmF"/></g><g><use fill="#ebebeb" xlink:href="#b0wmG"/></g><g><use fill="#ebebeb" xlink:href="#b0wmH"/></g><g><use fill="#ebebeb" xlink:href="#b0wmI"/></g><g><use fill="#ebebeb" xlink:href="#b0wmJ"/></g><g><use fill="#ebebeb" xlink:href="#b0wmK"/></g><g><use fill="#ebebeb" xlink:href="#b0wmL"/></g><g><use fill="#ebebeb" xlink:href="#b0wmM"/></g><g><use fill="#ebebeb" xlink:href="#b0wmN"/></g><g><use fill="#ebebeb" xlink:href="#b0wmO"/></g><g><use fill="#ebebeb" xlink:href="#b0wmP"/></g><g><use fill="#ebebeb" xlink:href="#b0wmQ"/></g><g><use fill="#ebebeb" xlink:href="#b0wmR"/></g><g><use fill="#ebebeb" xlink:href="#b0wmS"/></g><g><use fill="#ebebeb" xlink:href="#b0wmT"/></g><g><use fill="#ebebeb" xlink:href="#b0wmU"/></g><g><use fill="#ebebeb" xlink:href="#b0wmV"/></g><g><use fill="#ebebeb" xlink:href="#b0wmW"/></g><g><use fill="#ebebeb" xlink:href="#b0wmX"/></g><g><use fill="#ebebeb" xlink:href="#b0wmY"/></g><g><use fill="#ebebeb" xlink:href="#b0wmZ"/></g><g><use fill="#ebebeb" xlink:href="#b0wmaa"/></g><g><use fill="#ebebeb" xlink:href="#b0wmab"/></g><g><use fill="#ebebeb" xlink:href="#b0wmac"/></g><g><use fill="#ebebeb" xlink:href="#b0wmad"/></g><g><use fill="#ebebeb" xlink:href="#b0wmae"/></g><g><use fill="#ebebeb" xlink:href="#b0wmaf"/></g><g><use fill="#ebebeb" xlink:href="#b0wmag"/></g><g><use fill="#ebebeb" xlink:href="#b0wmah"/></g><g><use fill="#ebebeb" xlink:href="#b0wmai"/></g><g><use fill="#ebebeb" xlink:href="#b0wmaj"/></g><g><use fill="#ebebeb" xlink:href="#b0wmak"/></g><g><use fill="#ebebeb" xlink:href="#b0wmal"/></g><g><use fill="#ebebeb" xlink:href="#b0wmam"/></g><g><use fill="#ebebeb" xlink:href="#b0wman"/></g><g><use fill="#ebebeb" xlink:href="#b0wmao"/></g><g><use fill="#ebebeb" xlink:href="#b0wmap"/></g><g><use fill="#ebebeb" xlink:href="#b0wmaq"/></g><g><use fill="#ebebeb" xlink:href="#b0wmar"/></g><g><use fill="#ebebeb" xlink:href="#b0wmas"/></g><g><use fill="#ebebeb" xlink:href="#b0wmat"/></g><g><use fill="#ebebeb" xlink:href="#b0wmau"/></g><g><use fill="#ebebeb" xlink:href="#b0wmav"/></g><g><use fill="#ebebeb" xlink:href="#b0wmaw"/></g><g><use fill="#ebebeb" xlink:href="#b0wmax"/></g><g><use fill="#ebebeb" xlink:href="#b0wmay"/></g><g><use fill="#ebebeb" xlink:href="#b0wmaz"/></g><g><use fill="#ebebeb" xlink:href="#b0wmaA"/></g><g><use fill="#ebebeb" xlink:href="#b0wmaB"/></g><g><use fill="#ebebeb" xlink:href="#b0wmaC"/></g><g><use fill="#ebebeb" xlink:href="#b0wmaD"/></g><g><use fill="#ebebeb" xlink:href="#b0wmaE"/></g><g><use fill="#ebebeb" xlink:href="#b0wmaF"/></g><g><use fill="#ebebeb" xlink:href="#b0wmaG"/></g><g><use fill="#ebebeb" xlink:href="#b0wmaH"/></g><g><use fill="#ebebeb" xlink:href="#b0wmaI"/></g><g><use fill="#ebebeb" xlink:href="#b0wmaJ"/></g><g><use fill="#ebebeb" xlink:href="#b0wmaK"/></g><g><use fill="#ebebeb" xlink:href="#b0wmaL"/></g><g><use fill="#ebebeb" xlink:href="#b0wmaM"/></g><g><use fill="#ebebeb" xlink:href="#b0wmaN"/></g><g><use fill="#ebebeb" xlink:href="#b0wmaO"/></g><g><use fill="#ebebeb" xlink:href="#b0wmaP"/></g><g><use fill="#ebebeb" xlink:href="#b0wmaQ"/></g><g><use fill="#ebebeb" xlink:href="#b0wmaR"/></g><g><use fill="#ebebeb" xlink:href="#b0wmaS"/></g><g><use fill="#ebebeb" xlink:href="#b0wmaT"/></g><g><use fill="#ebebeb" xlink:href="#b0wmaU"/></g><g><use fill="#ebebeb" xlink:href="#b0wmaV"/></g><g><use fill="#ebebeb" xlink:href="#b0wmaW"/></g><g><use fill="#ebebeb" xlink:href="#b0wmaX"/></g><g><use fill="#ebebeb" xlink:href="#b0wmaY"/></g><g><use fill="#ebebeb" xlink:href="#b0wmaZ"/></g><g><use fill="#ebebeb" xlink:href="#b0wmba"/></g><g><use fill="#ebebeb" xlink:href="#b0wmbb"/></g><g><use fill="#ebebeb" xlink:href="#b0wmbc"/></g><g><use fill="#ebebeb" xlink:href="#b0wmbd"/></g><g><g><use fill="#ebebeb" xlink:href="#b0wmbe"/></g><g><use fill="#ebebeb" xlink:href="#b0wmbf"/></g><g><use fill="#ebebeb" xlink:href="#b0wmbg"/></g><g><use fill="#ebebeb" xlink:href="#b0wmbh"/></g><g><use fill="#ebebeb" xlink:href="#b0wmbi"/></g><g><use fill="#ebebeb" xlink:href="#b0wmbj"/></g><g><use fill="#ebebeb" xlink:href="#b0wmbk"/></g><g><use fill="#ebebeb" xlink:href="#b0wmbl"/></g><g><use fill="#ebebeb" xlink:href="#b0wmbm"/></g><g><use fill="#ebebeb" xlink:href="#b0wmbn"/></g><g><use fill="#ebebeb" xlink:href="#b0wmbo"/></g><g><use fill="#ebebeb" xlink:href="#b0wmbp"/></g><g><use fill="#ebebeb" xlink:href="#b0wmbq"/></g><g><use fill="#ebebeb" xlink:href="#b0wmbr"/></g><g><use fill="#ebebeb" xlink:href="#b0wmbs"/></g><g><use fill="#ebebeb" xlink:href="#b0wmbt"/></g><g><use fill="#ebebeb" xlink:href="#b0wmbu"/></g><g><use fill="#ebebeb" xlink:href="#b0wmbv"/></g><g><use fill="#ebebeb" xlink:href="#b0wmbw"/></g><g><use fill="#ebebeb" xlink:href="#b0wmbx"/></g><g><use fill="#ebebeb" xlink:href="#b0wmby"/></g><g><use fill="#ebebeb" xlink:href="#b0wmbz"/></g><g><use fill="#ebebeb" xlink:href="#b0wmbA"/></g><g><use fill="#ebebeb" xlink:href="#b0wmbB"/></g><g><use fill="#ebebeb" xlink:href="#b0wmbC"/></g><g><use fill="#ebebeb" xlink:href="#b0wmbD"/></g><g><use fill="#ebebeb" xlink:href="#b0wmbE"/></g><g><use fill="#ebebeb" xlink:href="#b0wmbF"/></g><g><use fill="#ebebeb" xlink:href="#b0wmbG"/></g><g><use fill="#ebebeb" xlink:href="#b0wmbH"/></g><g><use fill="#ebebeb" xlink:href="#b0wmbI"/></g><g><use fill="#ebebeb" xlink:href="#b0wmbJ"/></g><g><use fill="#ebebeb" xlink:href="#b0wmbK"/></g><g><use fill="#ebebeb" xlink:href="#b0wmbL"/></g><g><use fill="#ebebeb" xlink:href="#b0wmbM"/></g><g><use fill="#ebebeb" xlink:href="#b0wmbN"/></g><g><use fill="#ebebeb" xlink:href="#b0wmbO"/></g><g><use fill="#ebebeb" xlink:href="#b0wmbP"/></g><g><use fill="#ebebeb" xlink:href="#b0wmbQ"/></g><g><use fill="#ebebeb" xlink:href="#b0wmbR"/></g></g></g></g></svg>